<svg width="80" height="81" viewBox="0 0 80 81" fill="none" xmlns="http://www.w3.org/2000/svg">
<g filter="url(#filter0_d_14_48)">
<path d="M68.1304 66.9392L44.3575 72.0916L20.5841 66.9392L15.0983 19.1007H73.617L68.1304 66.9392Z" fill="#2062AF"/>
<path d="M39.9995 23.1977V68.2043L40.0533 68.216L59.2917 64.0462L63.7323 23.1977H39.9995Z" fill="#3C9CD7"/>
<path d="M29.0935 11.3276V8.48023H34.2546V5.36456H25.2227V14.1707H34.2546V11.3276H29.0935ZM43.5388 8.48023H47.147V5.36456H38.1143V8.48023C39.3228 9.45294 39.953 9.91851 41.7008 11.3253C40.6791 11.3253 38.1143 11.3283 38.1143 11.3281V14.1707H47.147V11.3276L43.5388 8.48023ZM56.341 8.48023H59.9491V5.36456H50.9161V8.48023C52.1245 9.45294 52.7551 9.91851 54.5029 11.3253C53.4815 11.3253 50.9161 11.3283 50.9161 11.3281V14.1707H59.9493V11.3276L56.341 8.48023Z" fill="black"/>
<path d="M42.5158 35.4947L25.5007 41.1987L26.0649 46.846L42.5158 41.1843L60.0152 35.1621L60.7407 29.3851L42.5158 35.4947Z" fill="white"/>
<path d="M25.5005 41.5489L26.0647 47.1963L42.5156 41.5346V35.845L25.5005 41.5489Z" fill="url(#paint0_linear_14_48)"/>
<path d="M58.2066 29.3852L39.9816 35.4947V41.1843L57.481 35.1621L58.2066 29.3852Z" fill="url(#paint1_linear_14_48)"/>
<path d="M25.5228 41.8759L26.0872 47.5232L51.3289 47.588L50.7642 55.1177L42.4583 56.9999L34.4738 55.3772L33.99 50.7035H26.571L27.5388 59.7261L42.5389 63.2961L57.4577 59.7909L59.3933 41.8759H25.5228Z" fill="url(#paint2_linear_14_48)"/>
<path opacity="0.05" d="M42.5158 41.8759H25.5007L26.0649 47.5232L42.5158 47.5655V41.8759ZM42.5158 56.9819L42.4352 57L34.4517 55.3773L33.9679 50.7037H26.5491L27.5167 59.7263L42.5158 63.2963V56.9819Z" fill="black"/>
<path d="M24.1965 29.3852H60.969L60.2435 35.1622H25.0835L24.1965 29.3852Z" fill="url(#paint3_linear_14_48)"/>
<path opacity="0.05" d="M42.744 29.3852H24.1965L25.0835 35.1622H42.744V29.3852Z" fill="black"/>
</g>
<defs>
<filter id="filter0_d_14_48" x="-4" y="0.247009" width="88" height="88" filterUnits="userSpaceOnUse" color-interpolation-filters="sRGB">
<feFlood flood-opacity="0" result="BackgroundImageFix"/>
<feColorMatrix in="SourceAlpha" type="matrix" values="0 0 0 0 0 0 0 0 0 0 0 0 0 0 0 0 0 0 127 0" result="hardAlpha"/>
<feOffset dy="4"/>
<feGaussianBlur stdDeviation="2"/>
<feComposite in2="hardAlpha" operator="out"/>
<feColorMatrix type="matrix" values="0 0 0 0 0 0 0 0 0 0 0 0 0 0 0 0 0 0 0.25 0"/>
<feBlend mode="normal" in2="BackgroundImageFix" result="effect1_dropShadow_14_48"/>
<feBlend mode="normal" in="SourceGraphic" in2="effect1_dropShadow_14_48" result="shape"/>
</filter>
<linearGradient id="paint0_linear_14_48" x1="32.741" y1="47.8471" x2="32.741" y2="35.8451" gradientUnits="userSpaceOnUse">
<stop offset="0.387" stop-color="#D1D3D4" stop-opacity="0"/>
<stop offset="1" stop-color="#D1D3D4"/>
</linearGradient>
<linearGradient id="paint1_linear_14_48" x1="47.7368" y1="41.8609" x2="47.7368" y2="29.3853" gradientUnits="userSpaceOnUse">
<stop offset="0.387" stop-color="#D1D3D4" stop-opacity="0"/>
<stop offset="1" stop-color="#D1D3D4"/>
</linearGradient>
<linearGradient id="paint2_linear_14_48" x1="25.5228" y1="53.2001" x2="54.3486" y2="53.2001" gradientUnits="userSpaceOnUse">
<stop stop-color="#E8E7E5"/>
<stop offset="1" stop-color="white"/>
</linearGradient>
<linearGradient id="paint3_linear_14_48" x1="24.1965" y1="32.4393" x2="55.4921" y2="32.4393" gradientUnits="userSpaceOnUse">
<stop stop-color="#E8E7E5"/>
<stop offset="1" stop-color="white"/>
</linearGradient>
</defs>
</svg>
