<svg width="67" height="67" viewBox="0 0 67 67" fill="none" xmlns="http://www.w3.org/2000/svg">
<path d="M57.1736 13.1339L52.8602 61.4555L33.471 66.8307L14.1353 61.4629L9.82635 13.1339H57.1736Z" fill="#E44D26"/>
<path d="M33.5 62.722L49.1674 58.3785L52.8534 17.0854H33.5V62.722Z" fill="#F16529"/>
<path d="M25.1148 28.9403H33.5V23.0129H18.637L18.7788 24.6031L20.2357 40.9374H33.5V35.01H25.6566L25.1148 28.9403ZM26.4507 43.9012H20.5005L21.3309 53.2081L33.4727 56.5785L33.5 56.5711V50.4041L33.474 50.4109L26.8728 48.6285L26.4507 43.9012Z" fill="#EBEBEB"/>
<path d="M14.2314 0H17.2437V2.97602H19.9992V0H23.0116V9.01215H19.9994V5.99436H17.2438V9.01215H14.2316V0H14.2314ZM26.9726 2.98864H24.3212V0H32.6384V2.98864H29.9854V9.01215H26.9731V2.98864H26.973H26.9726ZM33.9584 0H37.0992L39.0313 3.16663L40.9615 0H44.1036V9.01215H41.1036V4.54523L39.0313 7.74954H38.9793L36.9057 4.54523V9.01215H33.9584V0ZM45.6027 0H48.6158V6.03334H52.8518V9.01215H45.6025V0H45.6027Z" fill="black"/>
<path d="M33.4796 40.9374H40.7785L40.0903 48.6248L33.4794 50.4091V56.5757L45.6309 53.208L45.72 52.2066L47.113 36.6017L47.2576 35.01H33.4796V40.9374ZM33.4796 28.9258V28.9403H47.797L47.9157 27.6081L48.186 24.6031L48.3276 23.0129H33.4796V28.926V28.9258Z" fill="white"/>
</svg>
