<svg width="511" height="426" viewBox="0 0 511 426" fill="none" xmlns="http://www.w3.org/2000/svg">
<path d="M511 395.832H0V397.065H511V395.832Z" fill="#3F3D56"/>
<path d="M320.611 184.739C320.611 184.739 297.691 203.419 309.151 207.665C320.611 211.91 327.979 192.381 327.979 192.381L320.611 184.739Z" fill="#FFB8B8"/>
<path d="M321.43 177.946L316.518 186.437C316.518 186.437 324.704 186.437 326.341 199.174L332.89 190.683L321.43 177.946Z" fill="#CFCCE0"/>
<path d="M430.302 371.543L431.121 397.016L421.297 402.96L417.205 400.413L418.023 371.543H430.302Z" fill="#FFB8B8"/>
<path d="M372.182 364.75L373.819 391.922L350.899 402.111L352.536 387.676C352.536 387.676 359.085 376.638 357.448 364.75H372.182Z" fill="#FFB8B8"/>
<path d="M407.381 160.115C407.381 160.115 420.479 195.777 422.935 217.854C425.39 239.931 429.483 298.52 429.483 298.52L437.669 374.09L414.749 377.487L404.926 301.067L382.824 225.496L377.912 301.067L373.819 369.845L352.536 370.694L350.899 299.369L341.895 208.514L346.806 165.209L407.381 160.115Z" fill="#2F2E41"/>
<path d="M419.66 398.714C419.66 398.714 421.003 384.454 430.973 392.433L432.758 391.072L440.943 409.753C440.943 409.753 450.766 424.188 433.576 425.886C416.386 427.584 418.023 409.753 418.023 409.753L416.386 402.111L417.204 397.107L419.66 398.714Z" fill="#2F2E41"/>
<path d="M372.182 381.732C374.197 382.927 375.867 384.66 377.019 386.75C378.17 388.84 378.761 391.212 378.731 393.62C378.731 402.111 377.912 402.96 377.912 402.96L365.634 406.356C365.634 406.356 357.448 405.507 352.536 410.602C347.625 415.697 323.067 419.093 323.067 412.3C323.067 405.507 343.532 394.469 343.532 394.469C343.532 394.469 349.609 383.823 353.938 384.9C358.266 385.978 359.904 387.676 359.904 388.525C359.904 389.374 357.448 395.318 357.448 395.318C357.448 395.318 371.364 391.922 372.182 381.732Z" fill="#2F2E41"/>
<path d="M370.545 55.6743C381.847 55.6743 391.01 46.1704 391.01 34.4466C391.01 22.7228 381.847 13.2189 370.545 13.2189C359.243 13.2189 350.08 22.7228 350.08 34.4466C350.08 46.1704 359.243 55.6743 370.545 55.6743Z" fill="#FFB8B8"/>
<path d="M385.689 39.9658L394.693 61.1935L370.136 97.7052C370.136 97.7052 368.499 57.7971 363.587 51.0042C358.676 44.2114 385.689 39.9658 385.689 39.9658Z" fill="#FFB8B8"/>
<path d="M374.229 84.1196L378.322 73.0813L381.596 73.9301L385.689 70.5336L391.419 51.8535L399.605 57.797L410.246 169.03L343.941 170.729L352.946 93.4597L361.132 71.383L367.04 63.2802L370.954 75.6284L374.229 84.1196Z" fill="#CFCCE0"/>
<path d="M393.056 131.67L395.561 54.8609C395.561 54.8609 400.423 55.2498 402.061 57.7971C403.698 60.3445 430.711 65.4391 430.711 65.4391L425.8 144.406C425.8 144.406 446.264 207.24 438.897 210.637C431.53 214.033 418.432 213.184 418.432 213.184L393.056 131.67Z" fill="#575A89"/>
<path d="M353.355 121.905L362.039 70.1388L342.713 83.6949L347.625 121.056L343.532 146.529C343.532 146.529 327.979 217.005 332.89 219.552C337.802 222.1 343.532 219.552 343.532 219.552L353.355 148.227V121.905Z" fill="#575A89"/>
<path d="M348.443 81.9967L342.713 83.695L340.257 117.659L336.164 147.378L316.518 183.89C316.518 183.89 326.341 177.097 330.434 196.626L352.07 157.553L348.443 81.9967Z" fill="#575A89"/>
<path d="M412.293 177.946C412.293 177.946 389.373 196.626 400.833 200.872C412.293 205.118 419.66 185.588 419.66 185.588L412.293 177.946Z" fill="#FFB8B8"/>
<path d="M426.209 187.286L418.842 196.626L409.019 178.795L413.111 171.153L426.209 187.286Z" fill="#CFCCE0"/>
<path d="M424.572 68.411L431.12 65.0145C431.12 65.0145 436.032 71.8074 436.85 77.7512C437.669 83.6949 441.762 91.3369 441.762 95.5825C441.762 99.828 453.222 139.736 453.222 139.736L427.027 194.928C427.027 194.928 421.297 174.55 409.019 172.851L429.483 143.133L418.023 121.905L424.572 68.411Z" fill="#575A89"/>
<path d="M387.677 14.2211L391.536 12.6186C391.536 12.6186 383.467 3.40383 372.241 4.20514L375.398 0.599343C375.398 0.599343 367.68 -2.60575 360.664 5.80766C356.975 10.2304 352.708 15.4291 350.047 21.2854H345.914L347.639 25.225L341.602 29.1646L347.799 28.457C347.429 30.6144 347.373 32.8168 347.63 34.9916C347.896 37.167 348.967 39.1501 350.615 40.5226C350.615 40.5226 355.401 30.2467 355.401 28.6441V32.6505C355.401 32.6505 359.26 29.0448 359.26 26.6409L361.365 29.4454L362.418 25.0383L375.398 29.4454L373.293 25.8397L381.362 27.0416L378.205 22.6345C378.205 22.6345 387.326 27.8428 387.677 32.2499C388.028 36.6569 390.698 40.8328 390.698 40.8328C390.698 40.8328 397.851 20.2307 387.677 14.2211Z" fill="#2F2E41"/>
<path d="M387.326 34.022C388.592 34.022 389.618 32.6915 389.618 31.0501C389.618 29.4088 388.592 28.0782 387.326 28.0782C386.06 28.0782 385.034 29.4088 385.034 31.0501C385.034 32.6915 386.06 34.022 387.326 34.022Z" fill="#FFB8B8"/>
<path d="M94.7215 175.006H24.0573V154.466H60.9428L94.7215 175.006Z" fill="#536DFE"/>
<path d="M23.8633 172.187V232.195H253.328V172.187H23.8633ZM113.359 222.127H38.8115V213.669H113.359V222.127ZM238.38 206.42H38.8115V197.962H238.38V206.42ZM238.38 190.713H38.8115V182.255H238.38V190.713Z" fill="#3F3D56"/>
<path d="M94.7215 77.9449H24.0573V57.4048H60.9428L94.7215 77.9449Z" fill="#536DFE"/>
<path d="M23.8633 76.3338V136.343H253.328V76.3338H23.8633ZM113.359 126.274H38.8115V117.816H113.359V126.274ZM156.456 110.567H38.8115V102.109H156.456L156.456 110.567ZM238.38 94.86H38.8115V86.4024H238.38V94.86Z" fill="#3F3D56"/>
<path d="M94.7215 270.053H24.0573V249.514H60.9428L94.7215 270.053Z" fill="#536DFE"/>
<path d="M23.8633 266.026V326.035H253.328V266.026H23.8633ZM156.456 315.966H38.8115V307.508H156.456V315.966ZM156.456 300.259H38.8115V291.802H156.456V300.259ZM238.38 284.552H38.8115V276.095H238.38V284.552Z" fill="#3F3D56"/>
<path d="M318.363 123.052H285.748V89.2216H307.88V90.0269H286.525V122.247H317.586V106.137H318.363V123.052Z" fill="#3F3D56"/>
<path d="M301.888 114.228C301.134 111.919 291.683 104.073 297.474 102.754L302.224 109.323L324.059 86.673L326.256 88.951L301.888 114.228Z" fill="#536DFE"/>
<path d="M318.363 218.905H285.748V185.074H307.88V185.88H286.525V218.1H317.586V201.99H318.363V218.905Z" fill="#3F3D56"/>
<path d="M301.888 210.081C301.134 207.772 291.683 199.925 297.474 198.607L302.224 205.176L324.059 182.526L326.256 184.804L301.888 210.081Z" fill="#536DFE"/>
<path d="M318.363 314.355H285.748V280.525H307.88V281.33H286.525V313.55H317.586V297.44H318.363V314.355Z" fill="#3F3D56"/>
<path d="M301.888 305.531C301.134 303.223 291.683 295.376 297.474 294.057L302.224 300.626L324.059 277.976L326.256 280.254L301.888 305.531Z" fill="#536DFE"/>
</svg>
